<svg xmlns="http://www.w3.org/2000/svg" viewBox="0 0 200 160">
  <style>
    .hood { fill: #454d5e; }
    .mantle { fill: #5c6577; }
    @media (prefers-color-scheme: dark) {
      .hood { fill: #59637a; }
      .mantle { fill: #6e7890; }
    }
  </style>
  <!-- dark-eyed junco: slate hood, gray mantle, pale belly, rose bill -->
  <path class="hood" d="M82 100 L30 142 L40 150 L90 116 Z"/>
  <path fill="#dfe3ea" d="M160 52 C160 28 138 14 114 14 C82 15 58 34 55 64 C52 94 66 124 102 128 C132 131 154 114 159 86 C161 74 160 62 160 52 Z"/>
  <path class="mantle" d="M104 14.5 C80 16 58 34 55 64 C53.5 79 56 95 64 108 C68 114 73 117 78 118 C84 102 88 80 96 60 C97 44 99 26 104 14.5 Z"/>
  <path class="hood" d="M104 14.5 C108 14 111 14 114 14 C138 13 160 30 160 52 C160 58 158 62 154 65 C148 76 141 87 134 94 C122 88 106 74 96 60 C97 44 99 26 104 14.5 Z"/>
  <path fill="#eb6f92" d="M157 46 L178 52 L157 59 C154 55 154 50 157 46 Z"/>
</svg>
