<svg xmlns="http://www.w3.org/2000/svg" viewBox="0 0 589 591">
<path fill="#8f4560" fill-rule="evenodd" d="M389,544 L386,546 L386,549 L391,554 L396,565 L398,565 L396,552 L393,546 Z"/>
<path fill="#8f4560" fill-rule="evenodd" d="M347,520 L346,523 L352,524 L347,526 L349,534 L353,538 L356,548 L359,548 L359,539 L354,520 Z"/>
<path fill="#8f4560" fill-rule="evenodd" d="M303,431 L311,448 L331,482 L341,506 L339,509 L323,510 L320,507 L316,507 L309,512 L307,516 L307,522 L310,522 L314,517 L326,521 L344,522 L344,514 L354,514 L360,512 L381,531 L383,531 L383,528 L377,523 L378,522 L395,524 L398,521 L405,525 L405,522 L399,516 L376,514 L365,510 L359,504 L347,486 L315,426 L313,426 L307,432 Z"/>
<path fill="#8f4560" fill-rule="evenodd" d="M383,404 L383,406 L400,421 L435,462 L431,463 L431,465 L441,474 L439,477 L424,483 L404,486 L397,494 L397,502 L399,502 L400,498 L405,493 L408,496 L415,497 L433,492 L441,488 L449,487 L479,523 L482,523 L480,512 L475,504 L476,503 L482,507 L489,506 L494,514 L497,515 L496,507 L493,502 L476,488 L490,488 L494,483 L499,488 L501,488 L501,484 L497,478 L493,476 L478,478 L469,476 L461,472 L415,420 L400,400 L395,400 Z"/>
<path fill="#2a303d" fill-rule="evenodd" d="M181,385 L169,385 L163,382 L166,375 L158,375 L157,372 L153,372 L151,374 L147,373 L138,378 L37,452 L7,480 L6,486 L8,488 L21,490 L27,485 L26,482 L29,478 L35,485 L37,491 L41,493 L54,491 L74,481 L75,482 L71,486 L71,490 L73,490 L108,460 L148,417 L181,387 Z M67,446 L70,449 L64,454 L63,451 Z M155,376 L152,385 L146,389 L140,389 L140,393 L135,392 L131,395 L131,399 L127,398 L121,402 L118,400 L153,375 Z"/>
<path fill="#2a303d" fill-rule="evenodd" d="M244,203 L240,204 L230,213 L230,215 L245,208 Z"/>
<path fill="#2a303d" fill-rule="evenodd" d="M547,149 L545,149 L545,151 L551,155 L549,156 L550,160 L547,161 L546,164 L541,166 L539,170 L537,170 L538,177 L540,177 L540,173 L545,172 L543,167 L544,166 L554,169 L553,166 L555,165 L555,163 L552,158 L553,155 L551,155 Z"/>
<path fill="#2a303d" fill-rule="evenodd" d="M542,120 L543,123 L538,128 L538,130 L543,136 L546,137 L545,139 L542,138 L544,145 L549,146 L545,139 L548,138 L548,136 L545,135 L545,130 L543,129 L546,122 Z"/>
<path fill="#2a303d" fill-rule="evenodd" d="M523,30 L513,21 L501,15 L465,8 L450,8 L418,13 L398,21 L387,29 L372,45 L361,62 L355,75 L347,100 L350,99 L354,91 L355,93 L358,92 L359,95 L362,94 L363,96 L366,96 L370,93 L371,96 L378,95 L385,87 L388,80 L395,75 L406,72 L408,70 L420,69 L421,66 L424,68 L429,67 L433,69 L434,73 L439,77 L436,78 L435,81 L422,82 L398,93 L390,93 L390,96 L394,99 L392,100 L393,107 L397,111 L398,116 L403,118 L411,118 L412,116 L416,120 L412,122 L412,125 L415,126 L417,134 L419,135 L417,139 L425,141 L423,142 L423,144 L428,145 L424,156 L421,157 L420,154 L418,154 L416,157 L392,170 L385,176 L379,176 L374,179 L369,179 L369,172 L366,172 L348,186 L346,183 L339,183 L337,181 L343,171 L343,168 L339,169 L325,180 L320,175 L325,169 L325,167 L322,167 L315,173 L306,175 L293,181 L275,194 L251,207 L243,216 L241,216 L241,218 L244,217 L245,219 L240,228 L243,228 L245,233 L243,236 L240,236 L238,240 L242,239 L244,236 L249,235 L250,237 L208,263 L182,282 L178,281 L178,285 L176,287 L171,287 L169,291 L163,295 L163,297 L167,298 L170,294 L172,294 L173,291 L180,287 L182,290 L173,297 L173,299 L175,300 L165,307 L162,306 L162,308 L167,311 L155,319 L153,318 L153,316 L157,315 L158,312 L155,312 L153,315 L147,318 L147,314 L167,287 L167,285 L165,285 L151,302 L139,324 L126,338 L123,346 L126,347 L122,353 L107,364 L107,366 L102,370 L99,378 L93,383 L93,385 L104,388 L121,382 L134,374 L144,362 L160,351 L176,347 L177,345 L180,346 L187,344 L190,340 L191,342 L201,340 L239,325 L307,292 L338,275 L356,268 L363,262 L391,250 L391,248 L383,248 L395,239 L399,233 L410,223 L410,221 L407,220 L408,217 L406,216 L408,212 L408,205 L424,181 L424,176 L431,163 L440,162 L442,168 L447,169 L448,173 L450,173 L454,167 L455,175 L458,176 L460,184 L464,183 L465,180 L467,184 L469,184 L470,181 L472,184 L474,184 L475,177 L481,185 L483,185 L484,182 L487,182 L489,178 L493,179 L494,177 L496,180 L498,180 L499,177 L502,183 L504,183 L505,179 L506,182 L508,182 L509,179 L510,182 L525,182 L530,178 L533,179 L533,177 L528,176 L526,179 L523,177 L517,179 L514,175 L512,175 L511,177 L509,174 L504,174 L505,177 L503,178 L502,167 L498,167 L497,160 L495,160 L495,164 L493,164 L493,159 L490,158 L489,147 L487,147 L486,149 L487,163 L485,167 L482,143 L480,143 L479,154 L476,155 L475,161 L472,160 L470,168 L469,153 L467,153 L466,156 L465,150 L460,150 L458,154 L455,154 L453,156 L449,153 L450,148 L442,148 L442,144 L438,146 L436,145 L442,139 L440,135 L447,130 L450,131 L449,139 L452,140 L451,144 L455,143 L456,146 L458,146 L462,139 L469,142 L471,135 L475,132 L476,135 L478,135 L482,127 L485,134 L488,134 L489,131 L491,133 L494,132 L494,113 L499,104 L499,101 L497,101 L494,105 L494,109 L490,111 L489,107 L486,107 L485,105 L479,105 L485,99 L487,100 L487,103 L489,103 L491,96 L484,95 L482,93 L482,89 L479,89 L477,87 L484,80 L484,77 L481,77 L478,80 L470,80 L465,82 L458,81 L461,80 L462,77 L463,79 L470,77 L472,73 L475,72 L476,67 L474,66 L474,61 L476,60 L473,51 L468,46 L461,43 L450,44 L449,47 L446,46 L446,48 L443,49 L440,57 L441,65 L445,64 L445,62 L442,61 L442,57 L445,56 L447,52 L449,58 L456,59 L459,57 L459,55 L453,54 L452,51 L455,49 L460,49 L464,53 L464,57 L466,57 L466,53 L468,52 L472,60 L471,69 L465,76 L455,75 L449,72 L447,67 L445,67 L444,72 L448,71 L448,76 L452,78 L452,80 L444,79 L436,71 L435,67 L431,65 L426,66 L420,63 L438,54 L441,48 L441,45 L439,44 L442,41 L452,40 L455,37 L465,38 L471,35 L500,36 L506,33 L520,33 L526,36 Z M189,304 L183,310 L147,333 L143,331 L187,303 Z M187,282 L190,285 L184,289 L181,286 Z M326,278 L318,283 L317,281 L311,282 L309,279 L324,277 Z M300,279 L302,275 L310,278 L302,280 Z M227,268 L227,265 L230,263 L235,266 L229,269 Z M277,252 L266,257 L263,256 L274,249 Z M274,235 L268,240 L264,241 L264,243 L260,246 L228,260 L200,275 L198,274 L233,253 L256,244 L272,234 Z M312,224 L309,229 L291,240 L280,245 L278,244 L311,223 Z M447,157 L450,161 L448,166 L440,162 L444,161 Z M467,122 L462,127 L454,127 L455,122 Z M465,106 L468,107 L466,108 L466,110 L470,111 L466,114 L464,113 L464,111 L460,111 L460,109 Z"/>
<path fill="#b7bfcc" fill-rule="evenodd" d="M464,487 L464,489 L467,490 L465,491 L465,493 L467,494 L468,498 L473,499 L473,497 L470,496 L471,493 L469,492 L469,490 Z"/>
<path fill="#b7bfcc" fill-rule="evenodd" d="M347,486 L357,503 L359,503 L349,486 Z"/>
<path fill="#b7bfcc" fill-rule="evenodd" d="M320,463 L324,473 L326,473 L322,463 Z"/>
<path fill="#b7bfcc" fill-rule="evenodd" d="M316,430 L320,440 L322,440 L318,430 Z"/>
<path fill="#b7bfcc" fill-rule="evenodd" d="M322,412 L318,413 L317,410 L314,411 L308,421 L300,427 L302,433 L311,431 L321,416 Z"/>
<path fill="#b7bfcc" fill-rule="evenodd" d="M156,365 L154,365 L147,372 L147,374 L155,373 L155,371 L153,370 Z"/>
<path fill="#b7bfcc" fill-rule="evenodd" d="M244,371 L240,372 L239,367 L235,367 L234,363 L230,362 L230,358 L221,358 L215,356 L213,354 L218,352 L218,350 L213,350 L178,366 L178,368 L181,369 L174,376 L167,380 L165,385 L167,385 L167,383 L174,378 L183,377 L199,368 L206,366 L227,365 L231,366 L233,369 L236,369 L238,374 L244,373 Z"/>
<path fill="#b7bfcc" fill-rule="evenodd" d="M168,349 L166,349 L158,362 L162,360 Z"/>
<path fill="#b7bfcc" fill-rule="evenodd" d="M194,259 L191,259 L188,264 L185,264 L182,269 L179,269 L174,274 L174,278 L176,278 L177,275 L181,273 L189,263 L193,262 Z"/>
<path fill="#b7bfcc" fill-rule="evenodd" d="M265,242 L258,241 L256,242 L256,244 L258,245 L255,247 L253,246 L253,244 L242,248 L240,249 L240,251 L243,252 L232,258 L229,257 L237,253 L237,251 L227,255 L224,251 L225,247 L223,247 L221,250 L202,262 L201,265 L198,265 L197,267 L192,269 L195,275 L192,276 L191,273 L188,272 L188,276 L191,277 L190,279 L186,281 L186,275 L184,275 L182,282 L181,279 L179,279 L178,288 L176,288 L175,284 L173,284 L168,296 L163,296 L159,300 L158,298 L154,297 L156,301 L151,301 L151,303 L149,304 L149,310 L145,310 L145,312 L149,313 L149,311 L151,310 L154,313 L151,314 L151,316 L153,317 L145,323 L143,319 L146,318 L146,316 L141,317 L138,325 L140,325 L141,328 L144,329 L129,340 L128,337 L126,337 L126,339 L129,340 L126,343 L123,342 L124,346 L120,348 L120,354 L122,354 L128,346 L138,337 L175,313 L193,303 L195,299 L190,300 L161,318 L160,317 L197,292 L227,276 L228,273 L226,272 L229,268 L232,269 L246,262 L247,259 L244,259 L241,256 L252,251 L252,249 L249,248 L253,246 L254,249 L260,247 L260,245 L258,244 L259,243 L264,245 Z M223,251 L224,254 L227,255 L220,259 L215,256 Z"/>
<path fill="#b7bfcc" fill-rule="evenodd" d="M239,237 L231,241 L231,243 L235,244 L237,239 L238,241 L240,241 Z"/>
<path fill="#b7bfcc" fill-rule="evenodd" d="M225,234 L209,244 L208,248 L225,237 Z"/>
<path fill="#b7bfcc" fill-rule="evenodd" d="M226,226 L219,228 L219,224 L216,224 L216,227 L218,227 L219,229 L210,234 L209,239 L212,238 L213,234 L216,235 L216,233 L222,228 L226,228 Z"/>
<path fill="#b7bfcc" fill-rule="evenodd" d="M244,216 L232,220 L231,222 L229,222 L229,225 L244,218 Z"/>
<path fill="#b7bfcc" fill-rule="evenodd" d="M485,249 L483,249 L479,253 L478,250 L475,249 L474,241 L471,239 L465,240 L459,244 L458,242 L464,235 L464,232 L462,232 L461,229 L448,236 L447,230 L450,227 L452,221 L438,228 L437,226 L443,215 L440,215 L425,225 L420,225 L417,227 L415,226 L420,221 L420,219 L417,218 L425,210 L425,208 L420,207 L425,199 L426,192 L419,194 L418,193 L424,183 L424,181 L422,181 L418,190 L407,204 L407,206 L413,206 L420,196 L423,196 L416,209 L416,212 L420,213 L417,214 L409,222 L409,224 L412,225 L406,231 L406,238 L408,239 L397,247 L385,252 L379,258 L380,261 L375,265 L375,267 L378,268 L376,270 L346,284 L309,312 L289,324 L281,327 L278,342 L246,371 L246,373 L249,373 L258,364 L260,369 L259,374 L266,376 L262,380 L262,383 L265,383 L267,386 L273,387 L268,389 L268,391 L285,388 L286,389 L283,391 L283,393 L293,390 L297,391 L299,395 L306,396 L307,398 L309,398 L309,395 L313,392 L319,392 L320,395 L323,396 L333,393 L334,397 L337,397 L338,399 L348,397 L349,398 L346,403 L357,404 L360,402 L361,406 L371,405 L386,397 L387,399 L394,397 L394,400 L386,402 L385,405 L384,403 L382,403 L383,407 L385,407 L386,404 L397,401 L404,396 L419,393 L438,384 L463,366 L479,349 L489,291 L489,271 L486,271 L483,274 L481,273 L486,261 Z"/>
<path fill="#b7bfcc" fill-rule="evenodd" d="M497,180 L497,182 L499,182 L500,180 L505,180 L507,184 L509,184 L510,181 L511,183 L516,182 L516,180 L512,181 L511,179 L506,181 L505,177 Z"/>
<path fill="#b7bfcc" fill-rule="evenodd" d="M477,176 L473,177 L472,181 L467,180 L466,182 L458,179 L459,184 L462,183 L470,186 L471,183 L475,183 Z"/>
<path fill="#b7bfcc" fill-rule="evenodd" d="M546,171 L539,168 L538,173 L533,173 L532,178 L534,178 L535,176 L541,179 L541,177 L538,176 L541,172 L546,173 Z"/>
<path fill="#b7bfcc" fill-rule="evenodd" d="M545,167 L550,164 L550,169 L554,168 L556,163 L548,162 Z"/>
<path fill="#b7bfcc" fill-rule="evenodd" d="M397,143 L387,146 L386,148 L383,144 L381,144 L381,146 L384,150 L395,149 L397,147 Z"/>
<path fill="#b7bfcc" fill-rule="evenodd" d="M544,123 L542,123 L541,128 L539,129 L540,132 L542,132 L542,129 L545,128 Z"/>
<path fill="#b7bfcc" fill-rule="evenodd" d="M342,121 L344,125 L346,125 L348,121 L349,122 L348,128 L350,129 L350,131 L358,127 L358,125 L356,125 L355,127 L350,126 L354,123 L355,120 L357,120 L357,118 L355,118 L355,120 L351,122 L348,121 L349,118 L344,118 L344,120 Z"/>
<path fill="#b7bfcc" fill-rule="evenodd" d="M400,116 L403,121 L406,121 L407,124 L414,127 L415,131 L417,132 L414,133 L414,135 L419,135 L419,130 L416,128 L415,124 L407,122 L407,117 L403,119 L402,116 Z"/>
<path fill="#b7bfcc" fill-rule="evenodd" d="M385,103 L387,109 L392,112 L393,115 L395,115 L395,113 L393,113 L389,107 L390,105 L392,105 L392,103 Z"/>
<path fill="#b7bfcc" fill-rule="evenodd" d="M354,88 L354,92 L351,93 L351,95 L353,95 L354,93 L357,95 L357,97 L359,97 L359,95 L357,94 L360,89 L357,90 L356,88 Z"/>
<path fill="#b7bfcc" fill-rule="evenodd" d="M515,23 L515,25 L521,31 L523,31 L523,29 L517,23 Z"/>
<path fill="#1d222c" fill-rule="evenodd" d="M169,378 L167,378 L166,376 L156,376 L155,375 L158,373 L158,371 L155,371 L67,436 L29,466 L19,476 L16,477 L14,482 L21,480 L30,471 L31,473 L24,481 L23,486 L25,486 L41,470 L42,471 L34,483 L34,485 L37,485 L45,475 L72,450 L116,417 L164,385 L169,380 Z"/>
<path fill="#1d222c" fill-rule="evenodd" d="M372,255 L368,255 L352,265 L321,277 L312,277 L302,274 L297,271 L296,268 L291,268 L282,272 L282,270 L292,265 L292,263 L289,263 L219,296 L179,320 L175,320 L191,309 L220,293 L220,291 L218,291 L186,308 L146,334 L135,344 L135,348 L110,362 L104,369 L104,371 L106,372 L101,375 L100,378 L103,378 L144,355 L163,347 L164,349 L168,349 L233,327 L290,300 L330,278 L353,269 L371,258 Z M182,328 L181,332 L166,338 L163,337 L180,327 Z M176,321 L172,324 L173,327 L148,341 L146,340 L172,321 Z M255,285 L236,295 L233,294 L252,284 Z"/>
<path fill="#1d222c" fill-rule="evenodd" d="M376,237 L336,256 L311,264 L305,264 L305,266 L308,266 L309,269 L313,269 L336,261 L364,247 L375,240 Z"/>
<path fill="#1d222c" fill-rule="evenodd" d="M335,220 L324,224 L308,236 L281,252 L281,256 L290,253 L332,226 L335,223 Z"/>
<path fill="#1d222c" fill-rule="evenodd" d="M321,217 L315,218 L298,230 L281,239 L276,243 L276,247 L285,245 L314,228 L314,225 L321,220 Z"/>
<path fill="#1d222c" fill-rule="evenodd" d="M476,95 L465,96 L465,102 L476,100 Z"/>
<path fill="#1d222c" fill-rule="evenodd" d="M521,31 L509,31 L498,35 L469,34 L463,37 L453,36 L450,39 L440,40 L438,42 L438,49 L434,51 L432,55 L418,62 L404,65 L393,72 L393,75 L408,69 L418,68 L419,65 L425,68 L429,66 L435,70 L435,73 L442,80 L457,83 L467,83 L474,81 L477,84 L475,88 L472,89 L471,87 L466,87 L465,90 L467,92 L472,92 L475,88 L477,90 L480,90 L481,95 L485,97 L478,103 L476,107 L472,104 L466,104 L459,107 L457,111 L450,114 L449,117 L457,116 L460,114 L461,117 L463,117 L476,109 L479,110 L476,114 L473,114 L466,119 L462,119 L459,122 L451,121 L447,125 L446,129 L435,136 L435,138 L439,139 L428,149 L428,151 L435,149 L437,150 L434,156 L434,160 L437,159 L438,155 L443,150 L448,151 L442,160 L441,168 L445,166 L446,168 L449,168 L453,160 L454,162 L456,162 L459,158 L462,158 L462,171 L464,171 L465,163 L467,161 L468,175 L471,174 L473,165 L474,173 L476,173 L478,170 L478,161 L480,160 L481,152 L485,176 L487,176 L488,170 L490,177 L492,177 L493,174 L495,177 L499,175 L501,180 L505,178 L506,181 L508,181 L509,178 L510,181 L512,181 L513,179 L519,181 L522,179 L524,183 L526,183 L527,179 L528,181 L530,181 L530,179 L535,175 L540,178 L539,173 L544,168 L552,168 L554,161 L551,158 L552,155 L545,147 L547,142 L544,139 L547,138 L547,136 L542,132 L544,131 L542,127 L544,121 L541,118 L540,102 L542,101 L542,99 L540,97 L541,94 L538,90 L533,88 L508,88 L500,90 L496,86 L490,85 L488,83 L489,81 L500,77 L501,73 L505,74 L507,71 L510,72 L509,67 L512,62 L516,59 L521,59 L521,56 L524,55 L524,53 L516,47 L517,40 L531,44 L528,37 Z M489,160 L492,161 L492,171 L488,162 Z M459,128 L460,131 L452,136 L451,133 Z M493,113 L494,120 L492,131 L491,127 L488,126 L486,132 L484,130 L485,123 L482,123 L478,129 L475,129 L470,133 L468,139 L462,137 L481,121 L481,115 L486,110 L488,112 L485,115 L485,120 L488,120 L491,113 Z M449,54 L457,48 L461,49 L465,53 L463,57 L457,56 L454,58 Z"/>
<path fill="#8f4560" fill-rule="evenodd" d="M395,554 L396,558 L394,559 L396,567 L398,567 L396,561 L398,560 L397,554 Z"/>
<path fill="#8f4560" fill-rule="evenodd" d="M356,535 L357,539 L354,540 L355,545 L358,546 L356,547 L356,550 L358,550 L360,541 L358,535 Z"/>
<path fill="#8f4560" fill-rule="evenodd" d="M399,517 L398,522 L403,524 L404,520 Z"/>
<path fill="#8f4560" fill-rule="evenodd" d="M381,514 L381,516 L393,516 L393,514 Z"/>
<path fill="#8f4560" fill-rule="evenodd" d="M308,513 L306,521 L307,523 L310,523 L310,521 L308,520 L310,513 Z"/>
<path fill="#8f4560" fill-rule="evenodd" d="M342,513 L343,519 L339,520 L339,522 L343,522 L348,525 L347,530 L352,538 L354,538 L354,536 L350,532 L349,528 L352,526 L356,528 L356,526 L353,525 L356,520 L380,541 L382,547 L390,554 L392,554 L392,552 L388,548 L389,546 L392,546 L391,540 L386,531 L382,529 L379,524 L385,523 L385,521 L376,521 L375,523 L361,510 L352,513 Z"/>
<path fill="#8f4560" fill-rule="evenodd" d="M469,509 L475,520 L482,524 L482,520 L479,520 L474,515 L472,510 Z"/>
<path fill="#8f4560" fill-rule="evenodd" d="M475,506 L479,516 L481,516 L478,507 Z"/>
<path fill="#8f4560" fill-rule="evenodd" d="M494,503 L485,506 L481,505 L481,507 L490,507 L491,509 L493,509 L493,507 L491,506 L494,505 Z"/>
<path fill="#8f4560" fill-rule="evenodd" d="M436,489 L423,493 L423,495 L436,491 Z"/>
<path fill="#8f4560" fill-rule="evenodd" d="M463,487 L465,494 L470,494 L468,499 L469,501 L471,501 L470,497 L472,496 L472,494 L467,487 Z"/>
<path fill="#4a5266" fill-rule="evenodd" d="M7,486 L7,488 L15,488 L17,491 L21,491 L24,488 L24,486 L19,489 L16,486 Z"/>
<path fill="#8f4560" fill-rule="evenodd" d="M399,490 L399,492 L402,491 L403,494 L408,494 L408,492 L402,491 L405,487 L407,487 L407,485 Z"/>
<path fill="#8f4560" fill-rule="evenodd" d="M342,478 L351,496 L358,506 L362,508 L356,497 L349,489 L344,478 Z"/>
<path fill="#8f4560" fill-rule="evenodd" d="M492,476 L492,478 L496,479 L497,481 L491,483 L489,488 L491,488 L494,484 L497,485 L498,483 L499,485 L501,485 L500,481 L497,480 L496,477 Z"/>
<path fill="#4a5266" fill-rule="evenodd" d="M33,474 L32,478 L29,479 L28,482 L26,482 L26,484 L31,481 L36,490 L38,490 L37,485 L31,481 L32,478 L36,477 L37,473 Z"/>
<path fill="#8f4560" fill-rule="evenodd" d="M442,472 L440,472 L440,475 L434,478 L434,480 L441,478 Z"/>
<path fill="#4a5266" fill-rule="evenodd" d="M20,468 L18,468 L7,479 L6,483 L8,483 L20,470 Z"/>
<path fill="#8f4560" fill-rule="evenodd" d="M431,456 L435,463 L430,463 L430,465 L435,467 L437,461 L433,456 Z"/>
<path fill="#8f4560" fill-rule="evenodd" d="M316,455 L338,498 L340,506 L342,506 L339,494 L320,458 L318,455 Z"/>
<path fill="#4a5266" fill-rule="evenodd" d="M121,445 L119,445 L99,465 L99,467 L101,467 L121,447 Z"/>
<path fill="#4a5266" fill-rule="evenodd" d="M316,431 L320,441 L322,441 L318,431 Z"/>
<path fill="#4a5266" fill-rule="evenodd" d="M136,429 L134,429 L129,434 L129,436 L131,436 L136,431 Z"/>
<path fill="#4a5266" fill-rule="evenodd" d="M301,428 L308,443 L310,443 L308,437 L306,436 L309,431 Z"/>
<path fill="#4a5266" fill-rule="evenodd" d="M87,416 L68,428 L66,431 L64,431 L64,433 L87,418 Z"/>
<path fill="#4a5266" fill-rule="evenodd" d="M391,411 L391,413 L399,421 L401,421 L401,419 L393,411 Z"/>
<path fill="#4a5266" fill-rule="evenodd" d="M160,404 L158,404 L154,408 L151,407 L143,414 L142,417 L139,417 L112,440 L71,480 L71,482 L73,483 L70,486 L70,490 L74,490 L76,487 L78,487 L78,485 L76,484 L80,480 L81,483 L83,483 L84,480 L82,480 L81,478 L94,465 L94,463 L140,422 L143,416 L146,415 L147,417 L149,417 L160,406 Z"/>
<path fill="#4a5266" fill-rule="evenodd" d="M120,392 L118,392 L101,406 L89,413 L89,415 L93,414 L96,410 L111,401 L114,397 L119,395 Z"/>
<path fill="#4a5266" fill-rule="evenodd" d="M133,373 L119,381 L102,387 L95,384 L100,380 L100,378 L98,378 L93,382 L93,386 L100,389 L110,387 L128,379 L133,375 Z"/>
<path fill="#4a5266" fill-rule="evenodd" d="M171,378 L167,375 L161,376 L159,370 L156,370 L153,373 L146,373 L145,375 L141,376 L141,378 L143,378 L146,375 L153,375 L158,381 L123,405 L122,403 L120,403 L121,406 L89,429 L81,436 L81,438 L83,438 L116,413 L161,383 L161,378 L163,377 L166,380 L164,384 L166,384 L167,386 L169,386 L169,384 L167,383 L169,380 L171,380 Z"/>
<path fill="#4a5266" fill-rule="evenodd" d="M164,349 L159,349 L141,362 L135,369 L135,371 L137,371 L149,358 L161,351 L164,351 Z"/>
<path fill="#4a5266" fill-rule="evenodd" d="M184,343 L169,347 L169,349 L184,345 Z"/>
<path fill="#4a5266" fill-rule="evenodd" d="M183,268 L181,268 L174,275 L174,277 L176,277 L183,270 Z"/>
<path fill="#4a5266" fill-rule="evenodd" d="M277,244 L271,244 L264,247 L260,245 L243,253 L241,257 L240,255 L230,259 L226,266 L225,264 L217,265 L217,271 L214,270 L215,267 L211,268 L210,270 L205,270 L209,266 L213,265 L214,261 L218,262 L238,252 L238,250 L233,250 L234,248 L238,247 L238,245 L236,245 L219,257 L215,258 L213,261 L206,264 L202,270 L196,267 L166,291 L165,288 L170,284 L170,282 L167,282 L159,291 L159,295 L155,296 L155,298 L146,309 L146,313 L143,314 L141,318 L141,323 L131,331 L131,333 L128,335 L128,337 L130,338 L127,341 L124,341 L117,356 L111,362 L109,362 L106,367 L108,367 L108,365 L114,362 L118,357 L123,357 L131,352 L136,353 L160,340 L164,340 L164,337 L161,336 L206,311 L207,307 L197,311 L154,335 L151,333 L185,311 L188,307 L222,287 L270,264 L271,261 L267,261 L232,277 L229,276 L256,262 L278,254 L279,250 L276,247 Z M148,336 L140,343 L138,339 L144,334 Z M155,302 L157,308 L160,307 L161,309 L154,312 L151,317 L146,318 L145,315 L148,314 L149,309 L152,308 L152,303 Z M217,275 L216,277 L212,277 L207,280 L205,279 L211,275 Z"/>
<path fill="#4a5266" fill-rule="evenodd" d="M251,233 L247,234 L246,231 L244,231 L244,233 L240,237 L229,243 L227,247 L247,236 L249,237 L241,242 L241,244 L249,241 L252,237 Z"/>
<path fill="#4a5266" fill-rule="evenodd" d="M222,228 L205,238 L185,257 L185,259 L189,258 L208,240 L221,231 Z"/>
<path fill="#4a5266" fill-rule="evenodd" d="M405,226 L403,226 L398,231 L394,238 L380,247 L376,251 L376,255 L365,259 L354,267 L336,274 L305,291 L237,324 L199,339 L186,342 L186,344 L189,343 L190,346 L194,349 L198,349 L209,344 L212,344 L215,347 L225,345 L227,352 L231,352 L257,340 L301,301 L307,301 L331,284 L337,276 L346,274 L365,262 L390,251 L392,247 L386,248 L386,245 L392,242 L394,238 L397,237 L405,228 Z"/>
<path fill="#4a5266" fill-rule="evenodd" d="M292,222 L289,222 L274,232 L266,235 L256,241 L256,243 L265,243 L270,241 L292,225 Z"/>
<path fill="#4a5266" fill-rule="evenodd" d="M245,222 L227,232 L227,234 L242,228 L245,229 Z"/>
<path fill="#4a5266" fill-rule="evenodd" d="M413,197 L410,198 L404,209 L404,211 L406,212 L404,219 L407,225 L409,225 L413,221 L413,218 L409,220 L406,217 L408,209 L410,208 L410,205 L408,204 L413,199 Z"/>
<path fill="#4a5266" fill-rule="evenodd" d="M423,181 L421,181 L414,195 L416,195 L416,193 L420,189 Z"/>
<path fill="#4a5266" fill-rule="evenodd" d="M524,176 L524,180 L527,179 L528,182 L531,182 L532,177 Z"/>
<path fill="#4a5266" fill-rule="evenodd" d="M495,177 L495,179 L497,180 L502,179 L503,177 L505,178 L505,180 L507,180 L508,178 L509,180 L511,180 L510,176 L506,178 L505,174 L503,174 L502,177 Z"/>
<path fill="#4a5266" fill-rule="evenodd" d="M473,175 L473,177 L476,178 L481,186 L483,186 L485,183 L488,184 L489,179 L493,180 L493,178 L488,177 L487,180 L481,181 L476,176 L476,174 Z"/>
<path fill="#4a5266" fill-rule="evenodd" d="M456,172 L460,185 L464,184 L465,182 L467,185 L469,185 L470,182 L472,183 L472,185 L474,185 L469,176 L463,179 L462,182 L459,173 Z"/>
<path fill="#4a5266" fill-rule="evenodd" d="M548,165 L542,166 L542,168 L534,173 L534,175 L536,175 L537,173 L538,176 L543,174 L544,171 L548,170 Z"/>
<path fill="#4a5266" fill-rule="evenodd" d="M428,166 L440,162 L441,164 L443,164 L443,162 L441,160 L432,161 L431,159 L429,159 L429,161 L431,162 L428,163 Z"/>
<path fill="#4a5266" fill-rule="evenodd" d="M418,130 L416,134 L418,135 L419,140 L421,140 L420,137 L422,133 L420,132 L420,130 Z"/>
<path fill="#4a5266" fill-rule="evenodd" d="M540,118 L542,124 L539,130 L544,132 L545,129 L543,125 L545,124 L545,122 L542,118 Z"/>
<path fill="#4a5266" fill-rule="evenodd" d="M407,114 L407,119 L412,121 L411,125 L413,125 L414,127 L416,127 L416,124 L414,123 L425,120 L425,118 L420,119 L413,114 Z"/>
<path fill="#4a5266" fill-rule="evenodd" d="M424,157 L420,158 L419,155 L415,154 L415,151 L411,152 L408,147 L399,150 L395,150 L394,148 L385,149 L381,146 L386,144 L387,141 L383,142 L383,137 L381,137 L374,142 L373,141 L376,137 L376,134 L372,136 L370,135 L370,132 L366,134 L365,132 L368,126 L364,127 L364,123 L362,123 L352,129 L351,127 L347,126 L344,128 L340,135 L328,141 L326,145 L304,157 L301,157 L301,160 L291,167 L290,165 L295,157 L343,124 L347,113 L339,114 L328,126 L302,142 L285,155 L262,178 L247,199 L226,215 L220,221 L220,223 L249,206 L250,209 L244,215 L239,217 L239,219 L243,217 L246,218 L251,209 L277,195 L295,182 L314,174 L317,175 L316,179 L321,178 L323,180 L323,183 L325,183 L338,173 L339,175 L336,179 L336,183 L344,184 L346,186 L346,189 L348,189 L365,175 L367,176 L367,180 L370,181 L376,180 L381,177 L385,179 L394,171 L416,158 L418,160 L424,159 Z"/>
<path fill="#4a5266" fill-rule="evenodd" d="M435,68 L430,65 L426,67 L424,65 L416,65 L415,68 L409,68 L393,74 L386,79 L377,95 L380,95 L382,98 L390,101 L391,103 L389,104 L388,109 L394,115 L404,118 L404,116 L400,114 L398,109 L394,105 L394,102 L396,101 L396,98 L394,96 L418,85 L422,85 L428,82 L435,83 L438,79 L442,80 L440,75 L435,71 Z"/>
<path fill="#4a5266" fill-rule="evenodd" d="M361,65 L359,65 L349,91 L350,95 L347,96 L345,103 L347,103 L349,101 L349,97 L353,94 L356,94 L357,91 L359,92 L358,96 L365,97 L368,94 L369,97 L375,96 L374,90 L371,90 L366,94 L365,91 L361,91 L361,88 L355,88 L354,90 L352,89 Z"/>
<path fill="#4a5266" fill-rule="evenodd" d="M373,46 L371,46 L371,48 L368,50 L362,62 L364,62 Z"/>
<path fill="#4a5266" fill-rule="evenodd" d="M398,22 L390,26 L388,30 L397,25 Z"/>
<path fill="#4a5266" fill-rule="evenodd" d="M501,16 L501,18 L516,25 L516,23 L512,20 Z"/>
<path fill="#4a5266" fill-rule="evenodd" d="M419,13 L404,18 L404,20 L419,15 Z"/>
<path fill="#eef1f6" fill-rule="evenodd" d="M465,489 L471,502 L473,504 L474,501 L477,502 L473,499 L469,491 Z"/>
<path fill="#eef1f6" fill-rule="evenodd" d="M150,312 L146,312 L145,314 L146,313 L147,315 L145,317 L144,316 L145,319 L151,316 Z"/>
<path fill="#eef1f6" fill-rule="evenodd" d="M249,207 L246,207 L244,210 L240,210 L231,215 L230,214 L234,210 L229,215 L229,217 L226,217 L226,219 L220,223 L205,240 L206,242 L203,242 L183,262 L166,283 L161,291 L163,291 L161,295 L166,293 L174,284 L195,268 L196,271 L198,271 L198,269 L195,268 L199,265 L200,268 L204,267 L209,262 L218,258 L233,247 L249,239 L249,236 L246,236 L229,247 L226,246 L244,234 L244,231 L242,229 L235,229 L242,226 L244,218 L240,217 L249,210 Z"/>
<path fill="#2b3140" fill-rule="evenodd" d="M432,189 L429,192 L428,196 L432,196 L437,193 L439,194 L429,203 L429,206 L435,208 L431,213 L430,221 L443,216 L441,211 L445,207 L439,209 L438,205 L446,198 L437,202 L436,198 L441,192 L430,196 L429,192 Z"/>
<path fill="#2b3140" fill-rule="evenodd" d="M559,185 L559,209 L556,224 L551,224 L551,216 L550,227 L547,228 L545,225 L545,229 L542,230 L541,226 L539,240 L536,239 L535,232 L535,243 L530,261 L528,263 L525,262 L526,229 L524,229 L523,241 L519,241 L519,234 L515,250 L513,253 L511,253 L509,250 L509,238 L508,245 L504,245 L506,219 L504,240 L502,243 L499,242 L499,225 L503,213 L499,221 L496,220 L496,215 L492,235 L488,245 L485,244 L485,222 L483,231 L480,230 L480,222 L478,226 L475,225 L475,222 L472,234 L468,235 L466,232 L468,223 L465,232 L461,233 L460,229 L463,219 L458,224 L456,224 L456,216 L453,219 L450,218 L454,207 L450,211 L447,220 L442,225 L438,224 L439,220 L441,218 L436,226 L436,229 L444,225 L449,226 L445,230 L445,232 L448,233 L444,236 L444,238 L451,236 L457,231 L462,235 L456,243 L455,247 L469,239 L474,243 L475,250 L477,250 L478,253 L483,250 L486,252 L486,260 L479,277 L488,272 L489,286 L484,322 L478,349 L455,371 L441,381 L427,388 L447,380 L489,351 L511,330 L523,313 L541,278 L557,235 L561,216 L561,198 Z"/>
<path fill="#2b3140" fill-rule="evenodd" d="M354,89 L349,98 L348,97 L349,99 L347,100 L339,115 L342,113 L348,114 L346,118 L349,119 L346,121 L346,123 L351,122 L352,127 L356,127 L362,124 L363,127 L366,128 L366,133 L369,132 L370,136 L375,137 L373,139 L373,143 L381,139 L382,140 L380,144 L382,144 L384,148 L396,144 L397,145 L394,150 L401,150 L406,148 L409,153 L412,153 L414,151 L415,156 L419,155 L420,157 L423,157 L425,155 L429,144 L425,144 L425,140 L418,138 L419,134 L416,133 L416,127 L405,121 L407,120 L407,118 L398,116 L392,112 L388,107 L388,105 L391,104 L391,101 L389,99 L382,98 L381,95 L372,96 L372,92 L363,97 L359,94 L359,91 Z"/>
<path fill="#6b7484" fill-rule="evenodd" d="M361,521 L358,519 L353,519 L352,522 L345,523 L346,527 L352,525 L356,527 L355,522 L357,521 L361,523 Z"/>
<path fill="#6b7484" fill-rule="evenodd" d="M306,522 L308,522 L309,516 L310,519 L315,518 L315,516 L310,517 L309,514 L307,514 Z"/>
<path fill="#6b7484" fill-rule="evenodd" d="M496,506 L495,504 L493,504 L492,506 L482,506 L482,508 L489,507 L492,509 L492,511 L494,511 Z"/>
<path fill="#6b7484" fill-rule="evenodd" d="M359,504 L363,511 L370,513 L370,511 L364,509 L361,504 Z"/>
<path fill="#6b7484" fill-rule="evenodd" d="M471,496 L472,499 L470,500 L470,502 L473,501 L480,505 L480,503 L478,503 L473,496 Z"/>
<path fill="#6b7484" fill-rule="evenodd" d="M400,491 L398,491 L396,496 L397,504 L399,504 L400,501 L398,496 L399,495 L400,497 L402,497 L404,495 L404,493 L400,495 Z"/>
<path fill="#6b7484" fill-rule="evenodd" d="M334,490 L340,505 L338,510 L340,510 L342,505 L336,490 Z"/>
<path fill="#6b7484" fill-rule="evenodd" d="M492,482 L492,484 L495,484 L500,490 L502,490 L502,486 L499,486 L495,482 Z"/>
<path fill="#6b7484" fill-rule="evenodd" d="M325,472 L331,486 L333,486 L327,472 Z"/>
<path fill="#6b7484" fill-rule="evenodd" d="M97,458 L95,458 L72,481 L69,481 L70,487 L74,485 L75,488 L77,488 L77,486 L74,485 L95,463 Z"/>
<path fill="#6b7484" fill-rule="evenodd" d="M316,426 L312,425 L308,432 L310,432 L314,428 L315,430 L317,430 Z"/>
<path fill="#6b7484" fill-rule="evenodd" d="M124,344 L122,344 L121,350 L119,351 L116,358 L118,358 L119,355 L122,355 L126,350 L127,353 L129,353 L129,351 L126,350 Z"/>
<path fill="#6b7484" fill-rule="evenodd" d="M165,286 L163,286 L161,288 L161,291 L158,292 L158,297 L160,297 L160,295 L163,293 L163,290 L166,289 Z"/>
<path fill="#6b7484" fill-rule="evenodd" d="M262,265 L228,279 L192,299 L191,302 L186,302 L185,301 L189,297 L215,283 L217,279 L220,280 L240,269 L240,267 L238,267 L237,265 L242,259 L243,261 L248,262 L246,263 L246,265 L257,261 L257,259 L250,261 L248,257 L249,254 L244,252 L240,254 L240,258 L238,260 L231,258 L221,263 L223,268 L218,271 L217,266 L215,266 L214,269 L209,269 L208,272 L204,270 L210,267 L210,265 L208,265 L207,267 L204,266 L203,264 L206,263 L206,261 L204,261 L199,266 L187,273 L186,276 L183,276 L183,278 L186,279 L185,283 L183,283 L182,280 L178,280 L177,284 L169,288 L169,291 L164,295 L162,300 L155,299 L158,304 L155,308 L153,307 L154,303 L152,303 L151,307 L154,308 L153,311 L155,312 L148,317 L146,312 L144,312 L145,316 L147,316 L149,320 L146,321 L142,319 L144,324 L137,329 L137,331 L140,332 L136,334 L135,339 L137,339 L145,332 L151,330 L170,316 L186,308 L190,304 L194,303 L225,284 L261,268 Z M181,288 L184,291 L181,292 L180,297 L177,294 L179,289 Z M193,281 L197,280 L198,283 L202,282 L202,288 L199,289 L198,285 L196,285 Z M204,276 L205,279 L209,279 L210,282 L208,284 L202,280 Z M199,268 L199,272 L194,275 L192,273 Z M231,263 L233,263 L235,266 L233,270 L228,267 Z"/>
<path fill="#6b7484" fill-rule="evenodd" d="M201,245 L198,244 L193,249 L193,251 L199,249 Z"/>
<path fill="#6b7484" fill-rule="evenodd" d="M241,243 L239,243 L238,240 L233,240 L218,251 L218,253 L221,254 L220,256 L218,256 L218,258 L223,256 L223,254 L220,253 L223,250 L226,249 L227,252 L229,252 L229,250 L227,249 L230,244 L237,244 L232,247 L232,249 L234,249 L235,247 L241,245 Z"/>
<path fill="#6b7484" fill-rule="evenodd" d="M285,227 L264,237 L260,240 L260,242 L263,243 L253,248 L253,250 L265,245 L267,241 L280,233 L283,229 L285,229 Z"/>
<path fill="#6b7484" fill-rule="evenodd" d="M251,234 L247,234 L245,228 L240,225 L217,238 L203,249 L200,254 L202,254 L221,238 L232,233 L233,231 L242,229 L245,235 L242,237 L239,236 L239,238 L241,239 L248,236 L249,238 L251,238 Z"/>
<path fill="#6b7484" fill-rule="evenodd" d="M240,217 L234,219 L229,224 L224,225 L220,229 L206,237 L205,242 L208,241 L209,237 L213,237 L215,234 L217,234 L230,224 L239,220 Z"/>
<path fill="#6b7484" fill-rule="evenodd" d="M232,211 L227,214 L227,217 L224,218 L224,220 L232,216 Z"/>
<path fill="#6b7484" fill-rule="evenodd" d="M425,193 L418,195 L417,192 L419,191 L419,189 L417,189 L415,194 L412,196 L412,198 L415,199 L411,205 L411,200 L409,200 L406,205 L407,211 L404,218 L408,223 L390,241 L378,250 L378,252 L381,253 L363,261 L344,273 L332,277 L332,280 L307,299 L306,297 L303,297 L289,308 L255,339 L229,351 L227,344 L215,345 L213,342 L196,348 L194,346 L196,341 L165,348 L164,354 L148,372 L148,374 L150,374 L151,372 L155,375 L155,377 L165,376 L168,381 L170,381 L183,370 L182,367 L184,365 L209,353 L215,358 L228,359 L228,363 L232,364 L233,368 L237,368 L238,373 L249,372 L279,344 L280,334 L283,328 L291,325 L311,313 L348,285 L378,271 L392,261 L392,259 L384,262 L383,257 L387,253 L404,245 L412,238 L412,236 L409,235 L412,233 L412,231 L410,230 L417,223 L417,221 L414,220 L424,211 L424,209 L418,209 L424,200 Z"/>
<path fill="#6b7484" fill-rule="evenodd" d="M535,174 L529,176 L528,179 L527,176 L525,176 L529,183 L531,183 L529,179 L535,177 Z"/>
<path fill="#6b7484" fill-rule="evenodd" d="M495,174 L493,174 L492,177 L487,177 L487,179 L484,180 L486,185 L488,185 L486,180 L492,179 Z"/>
<path fill="#6b7484" fill-rule="evenodd" d="M272,169 L270,169 L265,174 L265,176 L267,176 L272,171 Z"/>
<path fill="#6b7484" fill-rule="evenodd" d="M545,166 L546,169 L544,170 L544,172 L546,172 L547,170 L550,171 L550,166 Z"/>
<path fill="#6b7484" fill-rule="evenodd" d="M430,165 L428,165 L423,176 L425,176 Z"/>
<path fill="#6b7484" fill-rule="evenodd" d="M282,159 L280,159 L274,165 L274,167 L276,167 L282,161 Z"/>
<path fill="#6b7484" fill-rule="evenodd" d="M404,147 L405,152 L408,153 L407,156 L411,155 L413,152 L416,153 L416,150 L413,150 L412,152 L409,146 Z"/>
<path fill="#6b7484" fill-rule="evenodd" d="M431,142 L428,142 L424,155 L421,156 L421,158 L425,158 Z"/>
<path fill="#6b7484" fill-rule="evenodd" d="M316,134 L300,143 L298,146 L296,146 L296,148 L301,146 L312,137 L316,136 Z"/>
<path fill="#6b7484" fill-rule="evenodd" d="M415,132 L415,135 L417,136 L417,140 L420,140 L418,135 L419,131 Z"/>
<path fill="#6b7484" fill-rule="evenodd" d="M332,123 L319,131 L319,133 L330,127 Z"/>
<path fill="#6b7484" fill-rule="evenodd" d="M398,143 L391,145 L388,148 L384,148 L383,146 L385,145 L386,141 L383,142 L381,139 L384,138 L384,136 L375,141 L374,139 L376,138 L377,133 L375,133 L374,135 L371,134 L371,131 L367,133 L367,126 L364,125 L365,122 L358,124 L353,128 L351,125 L352,122 L346,124 L345,118 L343,118 L343,121 L339,125 L293,156 L289,164 L285,168 L285,171 L294,168 L308,156 L330,145 L332,141 L342,136 L345,130 L348,128 L349,130 L354,130 L355,128 L360,126 L364,130 L363,135 L368,135 L369,138 L372,139 L371,144 L373,144 L374,141 L377,146 L379,146 L383,150 L389,150 L391,148 L393,151 L395,151 L394,147 L398,146 Z"/>
<path fill="#6b7484" fill-rule="evenodd" d="M417,119 L414,115 L410,115 L409,118 L406,117 L404,122 L412,124 L417,121 Z"/>
<path fill="#6b7484" fill-rule="evenodd" d="M374,94 L374,96 L380,96 L381,98 L386,99 L386,97 L384,97 L382,94 Z"/>
<path fill="#6b7484" fill-rule="evenodd" d="M372,91 L370,91 L366,95 L365,92 L363,92 L362,96 L366,97 L367,95 L369,95 L370,97 L372,97 L372,95 L369,94 L372,93 Z"/>
<path fill="#6b7484" fill-rule="evenodd" d="M355,89 L353,89 L352,91 L349,90 L349,98 L351,98 L350,93 L354,93 Z"/>
<path fill="#99a2b2" fill-rule="evenodd" d="M473,354 L471,354 L467,360 L464,361 L463,364 L460,365 L452,373 L422,390 L408,393 L398,398 L396,395 L402,391 L402,389 L399,389 L374,402 L365,405 L362,404 L368,399 L368,397 L365,397 L355,403 L349,401 L355,396 L355,394 L344,396 L343,395 L345,391 L339,391 L343,388 L343,386 L340,386 L328,394 L322,394 L321,391 L318,391 L315,387 L313,387 L312,391 L311,389 L309,389 L301,394 L299,392 L298,386 L302,384 L302,382 L283,387 L281,386 L282,383 L269,385 L264,381 L270,375 L270,372 L261,372 L263,361 L258,361 L247,372 L239,372 L238,367 L229,364 L204,365 L197,367 L181,376 L172,377 L166,381 L165,384 L181,386 L193,384 L226,384 L257,387 L258,391 L261,391 L263,395 L268,394 L269,399 L287,400 L296,405 L298,420 L303,431 L303,428 L309,423 L314,415 L318,417 L313,423 L314,425 L315,421 L323,411 L383,405 L397,400 L400,402 L400,398 L444,381 L457,370 L459,370 L463,364 L469,361 L473,357 Z"/>
<path fill="#2b3140" fill-rule="evenodd" d="M484,323 L482,323 L478,347 L476,351 L480,349 Z"/>
<path fill="#2b3140" fill-rule="evenodd" d="M488,300 L486,300 L483,321 L485,321 Z"/>
<path fill="#99a2b2" fill-rule="evenodd" d="M168,290 L163,289 L162,292 L158,295 L157,299 L162,298 L162,293 L167,293 Z"/>
<path fill="#2b3140" fill-rule="evenodd" d="M474,247 L474,252 L476,252 L477,254 L481,254 L483,252 L485,253 L484,263 L477,278 L480,279 L482,273 L483,275 L487,273 L488,284 L490,284 L489,270 L486,270 L484,272 L483,271 L487,261 L486,249 L483,248 L480,251 L479,246 Z"/>
<path fill="#99a2b2" fill-rule="evenodd" d="M209,247 L206,246 L203,251 L199,252 L197,256 L193,257 L191,261 L186,263 L186,265 L191,264 L193,260 L196,260 L197,257 L203,254 L205,250 L208,250 Z"/>
<path fill="#99a2b2" fill-rule="evenodd" d="M264,242 L259,241 L222,258 L222,255 L233,249 L232,244 L228,243 L224,246 L224,253 L222,253 L221,255 L220,252 L222,251 L222,249 L220,249 L216,254 L213,254 L208,259 L206,259 L204,263 L199,264 L198,266 L193,268 L192,271 L189,271 L189,273 L191,273 L193,276 L191,278 L189,275 L185,274 L185,276 L187,277 L186,278 L180,278 L181,281 L178,284 L177,282 L175,282 L175,291 L168,295 L169,298 L167,300 L162,300 L163,303 L160,306 L155,299 L154,304 L149,307 L151,309 L148,310 L146,315 L148,315 L149,312 L151,313 L151,315 L154,315 L164,306 L167,307 L167,303 L171,304 L197,286 L245,262 L245,260 L237,263 L235,261 L229,261 L262,246 Z M201,266 L203,269 L195,275 L195,269 L199,269 L199,267 Z M218,254 L219,257 L222,258 L217,261 L214,257 Z"/>
<path fill="#99a2b2" fill-rule="evenodd" d="M209,236 L202,243 L202,245 L205,244 L206,240 L210,240 Z"/>
<path fill="#99a2b2" fill-rule="evenodd" d="M250,234 L244,236 L243,234 L245,233 L245,231 L243,231 L243,233 L232,240 L232,242 L240,245 L244,243 L244,241 L242,240 L243,239 L250,239 Z"/>
<path fill="#99a2b2" fill-rule="evenodd" d="M243,224 L237,226 L236,229 L231,229 L230,232 L224,233 L223,235 L215,239 L214,242 L216,242 L224,235 L227,236 L231,234 L231,232 L234,230 L241,230 Z"/>
<path fill="#99a2b2" fill-rule="evenodd" d="M246,213 L235,218 L234,221 L230,221 L229,223 L225,224 L224,227 L220,227 L219,231 L214,231 L213,233 L211,233 L211,235 L215,236 L220,231 L230,226 L231,223 L237,222 L237,220 L242,217 L245,218 Z"/>
<path fill="#2b3140" fill-rule="evenodd" d="M423,175 L423,177 L425,178 L423,179 L421,185 L415,193 L415,197 L422,194 L424,195 L421,203 L417,208 L417,211 L421,212 L412,219 L411,223 L414,224 L407,231 L407,233 L410,233 L422,226 L427,226 L437,219 L438,221 L435,229 L440,229 L444,226 L447,227 L442,231 L442,233 L445,234 L442,240 L453,236 L456,232 L460,236 L453,246 L453,249 L458,248 L462,243 L467,241 L471,241 L473,244 L475,244 L473,239 L461,240 L463,235 L466,233 L466,231 L464,233 L461,233 L461,228 L457,229 L451,234 L449,233 L449,227 L453,223 L453,219 L451,219 L448,224 L443,224 L440,226 L438,225 L438,222 L443,214 L434,218 L432,214 L438,208 L438,205 L433,206 L430,204 L441,192 L430,196 L429,192 L432,189 L427,189 L429,184 L427,183 L427,180 L432,174 L427,178 L425,178 Z"/>
<path fill="#2b3140" fill-rule="evenodd" d="M381,136 L383,141 L378,144 L378,147 L382,147 L383,149 L392,148 L394,151 L399,151 L399,149 L396,148 L398,147 L399,143 L394,143 L391,147 L385,147 L384,146 L386,145 L383,136 Z"/>
<path fill="#2b3140" fill-rule="evenodd" d="M344,112 L345,115 L343,117 L343,122 L345,125 L348,125 L351,128 L349,129 L349,131 L353,130 L357,126 L364,124 L364,122 L357,124 L356,126 L353,126 L351,124 L355,122 L356,119 L349,122 L348,120 L351,118 L351,116 L348,112 Z"/>
<path fill="#cdd4de" fill-rule="evenodd" d="M464,488 L468,497 L470,497 L470,492 L468,492 L466,488 Z"/>
<path fill="#cdd4de" fill-rule="evenodd" d="M458,369 L456,369 L443,380 L439,381 L439,383 L449,378 L451,375 L457,372 Z"/>
<path fill="#cdd4de" fill-rule="evenodd" d="M479,349 L477,349 L472,354 L472,356 L474,356 L479,351 Z"/>
<path fill="#2b3140" fill-rule="evenodd" d="M487,260 L485,260 L478,278 L481,278 L486,273 L484,269 Z"/>
<path fill="#2b3140" fill-rule="evenodd" d="M473,241 L475,251 L477,251 L478,254 L480,254 L484,250 L485,253 L487,253 L486,248 L481,249 L480,245 L477,245 L475,241 Z"/>
<path fill="#2b3140" fill-rule="evenodd" d="M444,224 L439,225 L438,221 L435,230 L438,230 L440,227 L444,226 Z"/>
<path fill="#2b3140" fill-rule="evenodd" d="M452,219 L451,223 L447,223 L448,228 L444,230 L444,232 L447,233 L443,237 L443,239 L450,237 L458,230 L459,233 L462,234 L462,236 L454,245 L454,248 L456,248 L465,241 L471,240 L471,238 L463,240 L462,239 L466,232 L461,233 L461,227 L451,233 L447,229 L450,228 L452,223 L454,222 L454,219 Z"/>
<path fill="#cdd4de" fill-rule="evenodd" d="M250,206 L246,206 L227,216 L215,228 L206,240 L188,256 L184,261 L184,264 L173,274 L166,283 L168,284 L164,286 L164,289 L151,304 L152,306 L148,309 L143,321 L152,316 L153,307 L177,283 L184,282 L204,267 L250,238 L250,235 L244,235 L244,228 L240,227 L244,225 L244,216 L249,212 Z M188,268 L189,270 L183,276 L180,275 Z M242,232 L235,238 L232,238 L230,241 L191,269 L188,268 L217,243 L221,242 L224,238 L240,230 Z M242,221 L237,226 L233,228 L230,227 L241,220 Z"/>
<path fill="#2b3140" fill-rule="evenodd" d="M441,192 L430,196 L429,193 L427,194 L427,197 L434,195 L436,196 L428,204 L428,206 L432,207 L433,211 L430,213 L431,217 L424,223 L424,226 L435,220 L433,212 L435,211 L434,208 L439,204 L435,205 L433,201 L436,200 Z"/>
<path fill="#2b3140" fill-rule="evenodd" d="M378,138 L378,140 L380,141 L378,145 L381,144 L383,148 L393,146 L395,151 L398,151 L397,147 L399,146 L399,142 L386,146 L382,143 L383,140 Z"/>
<path fill="#2b3140" fill-rule="evenodd" d="M364,122 L362,125 L362,128 L365,129 L364,134 L369,133 L370,137 L372,137 L373,132 L376,136 L374,137 L374,139 L376,139 L378,132 L373,132 L376,128 L376,125 L374,125 L368,131 L365,128 L367,127 L366,122 Z"/>
<path fill="#2b3140" fill-rule="evenodd" d="M363,107 L357,109 L353,113 L347,112 L346,115 L345,112 L341,112 L339,115 L346,115 L344,117 L345,124 L349,125 L350,130 L358,126 L358,124 L354,124 L357,121 L357,117 L355,116 L363,110 Z"/>
<path fill="#2b3140" fill-rule="evenodd" d="M347,102 L349,102 L354,95 L358,95 L359,97 L362,96 L363,98 L375,97 L375,95 L373,94 L374,91 L371,91 L364,96 L363,94 L359,93 L360,90 L358,90 L357,93 L356,90 L354,90 L353,92 L351,90 L352,93 L350,96 L349,95 Z"/>
<path fill="#dfe3ea" opacity="0.92" d="M34,476 L40,483 L46,484 L52,482 L58,480 L64,477 L70,473 L76,479 L82,474 L88,469 L94,463 L100,458 L106,452 L112,446 L118,440 L124,433 L130,427 L136,421 L142,414 L148,408 L148,417 L142,423 L136,430 L130,436 L124,442 L118,449 L112,455 L106,461 L100,467 L94,472 L88,478 L82,483 L76,488 L70,482 L64,486 L58,489 L52,491 L46,493 L40,492 L34,485 Z"/><path fill="#a84867" d="M493 88 C520 89 552 92 574 95 L492 112 C487 104 488 95 493 88 Z"/><path fill="#8a3a54" opacity=".8" d="M493 99 C497 103 499 107 498 111 L492 112 C489 107 490 102 493 99 Z"/><path fill="#d9647f" d="M496 66 C520 70 553 83 574 95 L491 90 C489 82 490 73 496 66 Z"/><path fill="#ef92a8" opacity=".9" d="M499 68 C517 72 539 80 555 87 C540 82 519 75 500 71 C499 70 498 69 499 68 Z"/><path fill="#93445c" opacity=".85" d="M559 87 L574 95 L558 99 C556 95 556 91 559 87 Z"/><path fill="none" stroke="#7c3550" stroke-width="2" opacity=".7" d="M495 90 L557 93.5"/><path fill="#1d222c" d="M488 60 C495 61 501 65 506 70 C503 74 499 74 496 78 C492 80 489 80 487 79 C485 72 486 65 488 60 Z"/><path fill="#2a303d" opacity=".95" d="M487 79 C491 81 494 84 496 88 C493 91 490 91 488 93 C486 88 486 83 487 79 Z"/><circle fill="#1d222c" cx="453" cy="64" r="24"/><circle fill="none" stroke="#67707f" stroke-width="2.2" cx="453" cy="64" r="18.5"/><circle fill="#0e1219" cx="453" cy="64" r="17"/><circle fill="#dfe3ea" cx="447" cy="57" r="3.6"/><circle fill="#6f7889" cx="459" cy="70" r="1.8" opacity=".7"/>
</svg>